D:\school\WTK\thesis\model\3dpredictsim\Results\Batchsim_tmt_linear_v2\Pog_s1_tmt_aCst_d05_k1000_ig24_act_GRF.mot
nRows=30
nColumns=19

name D:\school\WTK\thesis\model\3dpredictsim\Results\Batchsim_tmt_linear_v2\Pog_s1_tmt_aCst_d05_k1000_ig24_act_GRF.mot
datacolumns 19
datarows 30
range 0.6376953672 1.0075586801
endheader
time 	ground_force_vx	ground_force_vy	ground_force_vz	ground_force_px	ground_force_py	ground_force_pz	1_ground_force_vx	1_ground_force_vy	1_ground_force_vz	1_ground_force_px	1_ground_force_py	1_ground_force_pz	ground_torque_x	ground_torque_y	ground_torque_z	1_ground_torque_x	1_ground_torque_y	1_ground_torque_z
        0.6376953672	       27.6516958539	      218.6535127659	        4.9764232810	        0.4486974615	        0.0000000000	        0.0400665525	      -87.7880183505	       73.2818972398	       -9.4643800671	        1.0003806499	        0.0000000000	       -0.0513630289	        0.0000000000	        0.0000000000	        0.0000000000	        0.0000000000	        0.0000000000	        0.0000000000	
        0.6504492745	       20.6906016793	      189.7219225475	       10.5338016375	        0.4489445926	        0.0000000000	        0.0402007946	     -132.9417331752	      241.9590953061	      -13.9783873673	        1.0075183742	        0.0000000000	       -0.0505875861	        0.0000000000	        0.0000000000	        0.0000000000	        0.0000000000	        0.0000000000	        0.0000000000	
        0.6632031818	       19.2553038473	      148.8754314294	       11.7290955460	        0.4494918997	        0.0000000000	        0.0403701383	     -100.3452260801	      523.7163198213	        2.6626641630	        1.0122311223	        0.0000000000	       -0.0505050210	        0.0000000000	        0.0000000000	        0.0000000000	        0.0000000000	        0.0000000000	        0.0000000000	
        0.6759570892	       11.8964827865	       96.6735741414	       12.0839493030	        0.4498948272	        0.0000000000	        0.0406836778	     -144.0585369088	      815.6918069372	       19.1696642909	        1.0228958302	        0.0000000000	       -0.0528347881	        0.0000000000	        0.0000000000	        0.0000000000	        0.0000000000	        0.0000000000	        0.0000000000	
        0.6887109965	       -3.2028892271	       38.9484005972	        6.8722416530	        0.4490356999	        0.0000000000	        0.0408197938	     -198.0599340199	      998.3100718371	       25.2213376138	        1.0329153058	        0.0000000000	       -0.0552912429	        0.0000000000	        0.0000000000	        0.0000000000	        0.0000000000	        0.0000000000	        0.0000000000	
        0.7014649039	       -4.5832897432	        4.4470647023	       -0.1162478015	        0.0000000000	        0.0000000000	        0.0000000000	     -195.3014388973	      995.3803550468	       25.8351260631	        1.0394681989	        0.0000000000	       -0.0566941537	        0.0000000000	        0.0000000000	        0.0000000000	        0.0000000000	        0.0000000000	        0.0000000000	
        0.7142188112	      -10.3746976148	        8.0150703042	       -0.8760921867	        0.0000000000	        0.0000000000	        0.0000000000	     -171.3641754885	      905.6815021973	       21.5927335132	        1.0442081279	        0.0000000000	       -0.0575935207	        0.0000000000	        0.0000000000	        0.0000000000	        0.0000000000	        0.0000000000	        0.0000000000	
        0.7269727186	       -9.1927990137	        6.1035260449	       -0.7967195381	        0.0000000000	        0.0000000000	        0.0000000000	     -147.3454227695	      824.0514961032	       18.5084719399	        1.0484822571	        0.0000000000	       -0.0581351446	        0.0000000000	        0.0000000000	        0.0000000000	        0.0000000000	        0.0000000000	        0.0000000000	
        0.7397266259	       -6.7114493082	        3.9932505619	       -0.5462021934	        0.0000000000	        0.0000000000	        0.0000000000	     -128.5137862283	      773.4772715143	       17.0242439764	        1.0533338793	        0.0000000000	       -0.0586258048	        0.0000000000	        0.0000000000	        0.0000000000	        0.0000000000	        0.0000000000	        0.0000000000	
        0.7524805332	       -4.0186410320	        2.1998407537	       -0.2948114189	        0.0000000000	        0.0000000000	        0.0000000000	     -117.4656593274	      744.8603729597	       15.8731073156	        1.0595118756	        0.0000000000	       -0.0587677401	        0.0000000000	        0.0000000000	        0.0000000000	        0.0000000000	        0.0000000000	        0.0000000000	
        0.7652344406	       -3.0118123283	        1.5539129613	       -0.1897601916	        0.0000000000	        0.0000000000	        0.0000000000	     -106.2868981442	      717.0475621617	       15.0712334913	        1.0653550023	        0.0000000000	       -0.0586757170	        0.0000000000	        0.0000000000	        0.0000000000	        0.0000000000	        0.0000000000	        0.0000000000	
        0.7779883479	       -2.2453919892	        1.1128003298	       -0.1077094546	        0.0000000000	        0.0000000000	        0.0000000000	      -94.7996474581	      687.3634626546	       14.5244035198	        1.0704610702	        0.0000000000	       -0.0585469237	        0.0000000000	        0.0000000000	        0.0000000000	        0.0000000000	        0.0000000000	        0.0000000000	
        0.7907422553	       -1.6481845258	        0.7897784826	       -0.0593108215	        0.0000000000	        0.0000000000	        0.0000000000	      -84.8168360555	      661.0879711973	       14.6775286601	        1.0752008393	        0.0000000000	       -0.0583556467	        0.0000000000	        0.0000000000	        0.0000000000	        0.0000000000	        0.0000000000	        0.0000000000	
        0.8034961626	       -1.2755385677	        0.5938200164	       -0.0325858271	        0.0000000000	        0.0000000000	        0.0000000000	      -75.7528691492	      639.2070279617	       15.0805099259	        1.0796573619	        0.0000000000	       -0.0581658930	        0.0000000000	        0.0000000000	        0.0000000000	        0.0000000000	        0.0000000000	        0.0000000000	
        0.8162500700	       -1.0700613904	        0.4861446038	       -0.0181962462	        0.0000000000	        0.0000000000	        0.0000000000	      -67.7311776671	      621.2369771832	       15.8780838821	        1.0838680575	        0.0000000000	       -0.0579822054	        0.0000000000	        0.0000000000	        0.0000000000	        0.0000000000	        0.0000000000	        0.0000000000	
        0.8290039773	       -0.9720166366	        0.4319370347	       -0.0098505270	        0.0000000000	        0.0000000000	        0.0000000000	      -60.2951052112	      606.6899296557	       16.8395335620	        1.0878693456	        0.0000000000	       -0.0577868064	        0.0000000000	        0.0000000000	        0.0000000000	        0.0000000000	        0.0000000000	        0.0000000000	
        0.8417578846	       -0.9650150626	        0.4199787920	       -0.0051153179	        0.0000000000	        0.0000000000	        0.0000000000	      -53.4016999572	      594.5492028699	       17.8453289189	        1.0916685046	        0.0000000000	       -0.0575775468	        0.0000000000	        0.0000000000	        0.0000000000	        0.0000000000	        0.0000000000	        0.0000000000	
        0.8545117920	       -1.0323330181	        0.4404886511	       -0.0020396852	        0.0000000000	        0.0000000000	        0.0000000000	      -47.3350202216	      584.2871790693	       18.7729415209	        1.0952132042	        0.0000000000	       -0.0573545419	        0.0000000000	        0.0000000000	        0.0000000000	        0.0000000000	        0.0000000000	        0.0000000000	
        0.8672656993	       -1.1577182106	        0.4852517112	        0.0007158158	        0.0000000000	        0.0000000000	        0.0000000000	      -41.9299926315	      575.2989588377	       19.0467221533	        1.0984554441	        0.0000000000	       -0.0571417500	        0.0000000000	        0.0000000000	        0.0000000000	        0.0000000000	        0.0000000000	        0.0000000000	
        0.8800196067	       -1.3193969692	        0.5443721540	        0.0038578130	        0.0000000000	        0.0000000000	        0.0000000000	      -37.0319396202	      566.9768924882	       19.3974785046	        1.1013731540	        0.0000000000	       -0.0569256436	        0.0000000000	        0.0000000000	        0.0000000000	        0.0000000000	        0.0000000000	        0.0000000000	
        0.8927735140	       -1.4931939787	        0.6077690635	        0.0070297524	        0.0000000000	        0.0000000000	        0.0000000000	      -32.3741112529	      559.1751882277	       19.8974749577	        1.1039630762	        0.0000000000	       -0.0567021137	        0.0000000000	        0.0000000000	        0.0000000000	        0.0000000000	        0.0000000000	        0.0000000000	
        0.9055274214	       -1.6475105359	        0.6630013160	        0.0098206344	        0.0000000000	        0.0000000000	        0.0000000000	      -27.6976099809	      552.3504183192	       20.4725167063	        1.1062556243	        0.0000000000	       -0.0564785759	        0.0000000000	        0.0000000000	        0.0000000000	        0.0000000000	        0.0000000000	        0.0000000000	
        0.9182813287	       -1.7542488170	        0.6994647940	        0.0115935635	        0.0000000000	        0.0000000000	        0.0000000000	      -22.9609025692	      546.4125500579	       21.0378123545	        1.1082694240	        0.0000000000	       -0.0562514282	        0.0000000000	        0.0000000000	        0.0000000000	        0.0000000000	        0.0000000000	        0.0000000000	
        0.9310352360	       -1.8038542824	        0.7138469927	        0.0123432169	        0.0000000000	        0.0000000000	        0.0000000000	      -18.0248283667	      541.3483832020	       21.4282337055	        1.1100248001	        0.0000000000	       -0.0560210783	        0.0000000000	        0.0000000000	        0.0000000000	        0.0000000000	        0.0000000000	        0.0000000000	
        0.9437891434	       -1.8130798919	        0.7126511681	        0.0125047253	        0.0000000000	        0.0000000000	        0.0000000000	      -12.9418433013	      536.7567562841	       21.3501062630	        1.1115252264	        0.0000000000	       -0.0557872626	        0.0000000000	        0.0000000000	        0.0000000000	        0.0000000000	        0.0000000000	        0.0000000000	
        0.9565430507	       -1.7919651721	        0.6998235662	        0.0129716702	        0.0000000000	        0.0000000000	        0.0000000000	       -7.7494051548	      532.8931811119	       21.0016486110	        1.1128022144	        0.0000000000	       -0.0555420394	        0.0000000000	        0.0000000000	        0.0000000000	        0.0000000000	        0.0000000000	        0.0000000000	
        0.9692969581	       -1.7014147563	        0.6608211062	        0.0138964882	        0.0000000000	        0.0000000000	        0.0000000000	       -2.1217360708	      532.3100127042	       20.3986868092	        1.1140080329	        0.0000000000	       -0.0552723524	        0.0000000000	        0.0000000000	        0.0000000000	        0.0000000000	        0.0000000000	        0.0000000000	
        0.9820508654	       -1.4882260986	        0.5753545452	        0.0150108889	        0.0000000000	        0.0000000000	        0.0000000000	        4.2029402971	      536.0074750977	       19.4284675994	        1.1152382291	        0.0000000000	       -0.0549786586	        0.0000000000	        0.0000000000	        0.0000000000	        0.0000000000	        0.0000000000	        0.0000000000	
        0.9948047728	       -1.1268448255	        0.4339976804	        0.0143505623	        0.0000000000	        0.0000000000	        0.0000000000	       10.7536165242	      542.9998197931	       19.1146198865	        1.1165141897	        0.0000000000	       -0.0546219097	        0.0000000000	        0.0000000000	        0.0000000000	        0.0000000000	        0.0000000000	        0.0000000000	
        1.0075586801	       -0.6795015033	        0.2609382439	        0.0102301810	        0.0000000000	        0.0000000000	        0.0000000000	       17.7090355739	      553.7761855150	       19.0738391012	        1.1178889903	        0.0000000000	       -0.0542176519	        0.0000000000	        0.0000000000	        0.0000000000	        0.0000000000	        0.0000000000	        0.0000000000	
